<svg data-v-fde0c5aa="" xmlns="http://www.w3.org/2000/svg" viewBox="0 0 300 300" class="iconAbove"><!----><defs data-v-fde0c5aa=""><!----></defs><rect data-v-fde0c5aa="" fill="transparent" x="0" y="0" width="300px" height="300px" class="logo-background-square"></rect><defs data-v-fde0c5aa=""><!----></defs><g data-v-fde0c5aa="" id="b123ea29-1276-4520-9c85-97bc7c6a861d" fill="#000000" transform="matrix(3.818993527414523,0,0,3.818993527414523,18.892491795103076,167.72852204722327)"><path d="M1.18 3.55L0.29 4.31L0.42 4.47L0.42 4.47Q0.90 4.25 1.00 5.58L1.00 5.58L0.95 11.52L0.95 11.52Q1.12 12.75 1.87 12.74L1.87 12.74L2.58 12.00L2.58 12.00Q1.89 11.89 1.98 10.31L1.98 10.31L1.98 7.57L3.55 7.52L4.30 6.73L4.13 6.56L2.71 6.56L2.02 7.18L2.04 4.70L4.20 4.70L5.22 3.78L5.15 3.62L2.78 3.62L1.93 4.43L1.93 4.43Q1.91 3.84 1.18 3.55L1.18 3.55ZM7.56 6.54L7.56 6.54L7.56 6.54Q6.54 6.56 5.70 7.23L5.70 7.23L5.70 7.23Q4.85 7.90 5.28 8.74L5.28 8.74L6.39 8.07L6.39 8.07Q6.17 6.90 7.60 7.03L7.60 7.03L7.60 7.03Q9.02 7.15 8.84 8.89L8.84 8.89L8.84 8.89Q7.73 8.39 6.85 8.61L6.85 8.61L6.85 8.61Q5.97 8.82 5.24 9.71L5.24 9.71L5.24 9.71Q4.65 10.58 4.86 11.18L4.86 11.18L4.86 11.18Q5.08 11.79 5.56 12.23L5.56 12.23L5.56 12.23Q6.04 12.67 6.64 12.71L6.64 12.71L6.64 12.71Q7.24 12.76 7.65 12.48L7.65 12.48L7.65 12.48Q8.06 12.20 8.85 11.49L8.85 11.49L8.85 11.49Q8.92 12.36 9.41 12.76L9.41 12.76L10.53 11.80L10.44 11.64L10.44 11.64Q9.87 12.10 9.81 10.58L9.81 10.58L9.82 8.14L9.82 8.14Q9.78 7.23 9.18 6.88L9.18 6.88L9.18 6.88Q8.58 6.53 7.56 6.54ZM8.54 9.84L8.54 9.84L8.81 9.47L8.82 11.08L8.82 11.08Q7.95 11.95 7.33 11.90L7.33 11.90L7.33 11.90Q6.71 11.85 6.28 11.48L6.28 11.48L6.28 11.48Q5.86 11.12 5.67 10.64L5.67 10.64L5.67 10.64Q5.48 10.17 5.74 9.71L5.74 9.71L5.74 9.71Q6.01 9.26 6.79 9.19L6.79 9.19L6.79 9.19Q7.58 9.11 8.54 9.84ZM12.31 6.39L10.96 7.22L11.05 7.33L11.05 7.33Q11.68 6.92 11.67 8.52L11.67 8.52L11.67 8.52Q11.60 11.43 11.69 11.88L11.69 11.88L11.69 11.88Q11.78 12.34 12.53 12.70L12.53 12.70L13.53 12.00L13.47 11.86L13.47 11.86Q12.92 12.18 12.80 11.16L12.80 11.16L12.80 11.16Q12.67 10.14 12.75 8.24L12.75 8.24L12.75 8.24Q14.06 6.81 15.02 7.10L15.02 7.10L15.02 7.10Q15.98 7.39 15.84 9.29L15.84 9.29L15.84 9.29Q15.80 11.34 15.85 11.83L15.85 11.83L15.85 11.83Q15.90 12.32 16.50 12.68L16.50 12.68L17.53 11.95L17.45 11.79L17.45 11.79Q16.97 12.04 16.90 11.10L16.90 11.10L16.90 11.10Q16.83 10.17 16.90 8.73L16.90 8.73L16.90 8.73Q16.95 7.85 16.68 7.26L16.68 7.26L16.68 7.26Q16.41 6.68 15.74 6.44L15.74 6.44L15.74 6.44Q15.06 6.20 14.25 6.55L14.25 6.55L14.25 6.55Q13.43 6.90 12.78 7.59L12.78 7.59L12.78 7.59Q12.84 6.75 12.31 6.39L12.31 6.39ZM23.50 3.96L22.63 4.72L22.63 4.72Q23.63 5.32 22.76 6.91L22.76 6.91L22.76 6.91Q21.75 6.34 20.62 6.78L20.62 6.78L20.62 6.78Q19.48 7.21 18.84 7.98L18.84 7.98L18.84 7.98Q18.19 8.76 18.18 9.70L18.18 9.70L18.18 9.70Q18.17 10.64 18.97 11.21L18.97 11.21L18.97 11.21Q19.77 11.79 21.08 11.18L21.08 11.18L21.08 11.18Q21.31 11.81 21.93 11.73L21.93 11.73L21.93 11.73Q22.54 11.65 23.06 11.96L23.06 11.96L23.06 11.96Q23.57 12.26 23.20 13.17L23.20 13.17L23.20 13.17Q22.84 14.07 21.56 14.09L21.56 14.09L21.56 14.09Q20.28 14.10 19.46 13.46L19.46 13.46L19.46 13.46Q18.63 12.81 19.16 12.40L19.16 12.40L19.04 12.24L17.79 13.24L17.79 13.24Q18.55 14.63 19.85 14.93L19.85 14.93L19.85 14.93Q21.15 15.23 22.03 14.72L22.03 14.72L22.03 14.72Q22.90 14.21 23.29 13.78L23.29 13.78L23.29 13.78Q23.69 13.35 23.96 12.80L23.96 12.80L23.96 12.80Q24.24 12.25 24.15 11.49L24.15 11.49L24.15 11.49Q24.07 10.74 23.07 10.66L23.07 10.66L23.07 10.66Q22.07 10.58 22.25 10.47L22.25 10.47L22.25 10.47Q22.43 10.35 22.69 10.08L22.69 10.08L22.69 10.08Q22.95 9.80 23.37 9.00L23.37 9.00L23.37 9.00Q23.79 8.20 22.91 7.09L22.91 7.09L22.91 7.09Q24.31 5.89 24.14 5.00L24.14 5.00L24.14 5.00Q23.98 4.12 23.50 3.96L23.50 3.96ZM21.09 7.24L21.09 7.24L21.09 7.24Q21.67 7.44 21.99 7.89L21.99 7.89L21.99 7.89Q22.32 8.33 22.36 9.18L22.36 9.18L22.36 9.18Q22.39 10.04 21.73 10.45L21.73 10.45L21.73 10.45Q21.08 10.87 20.45 10.62L20.45 10.62L20.45 10.62Q19.82 10.36 19.44 9.74L19.44 9.74L19.44 9.74Q19.05 9.11 19.16 8.53L19.16 8.53L19.16 8.53Q19.27 7.96 19.89 7.50L19.89 7.50L19.89 7.50Q20.50 7.03 21.09 7.24ZM27.13 6.45L27.13 6.45Q25.98 7.21 25.50 7.77L25.50 7.77L25.50 7.77Q25.03 8.33 24.83 8.89L24.83 8.89L24.83 8.89Q24.64 9.46 24.77 10.32L24.77 10.32L24.77 10.32Q24.90 11.17 25.76 11.96L25.76 11.96L25.76 11.96Q26.63 12.75 27.15 12.75L27.15 12.75L27.15 12.75Q27.67 12.76 28.79 11.73L28.79 11.73L28.79 11.73Q29.22 11.34 29.61 10.82L29.61 10.82L29.61 10.82Q30.00 10.31 30.12 9.74L30.12 9.74L30.12 9.74Q30.23 9.17 30.05 8.50L30.05 8.50L30.05 8.50Q29.88 7.83 29.07 7.04L29.07 7.04L29.07 7.04Q28.27 6.25 27.13 6.45L27.13 6.45ZM26.76 7.26L26.76 7.26L26.76 7.26Q27.55 7.08 28.49 8.24L28.49 8.24L28.49 8.24Q29.42 9.41 29.22 10.23L29.22 10.23L29.22 10.23Q29.03 11.06 28.37 11.56L28.37 11.56L28.37 11.56Q27.71 12.05 26.97 11.45L26.97 11.45L26.97 11.45Q26.24 10.84 25.80 10.15L25.80 10.15L25.80 10.15Q25.36 9.46 25.67 8.45L25.67 8.45L25.67 8.45Q25.98 7.43 26.76 7.26ZM31.77 6.46L30.56 7.35L30.67 7.52L30.67 7.52Q31.25 7.06 31.26 8.50L31.26 8.50L31.26 8.50Q31.19 11.46 31.28 11.91L31.28 11.91L31.28 11.91Q31.37 12.37 32.00 12.71L32.00 12.71L33.06 11.87L32.98 11.75L32.98 11.75Q32.44 11.96 32.33 11.08L32.33 11.08L32.33 11.08Q32.23 10.19 32.31 8.11L32.31 8.11L32.31 8.11Q33.32 6.60 34.14 8.12L34.14 8.12L35.01 7.42L35.01 7.42Q34.73 6.74 34.28 6.57L34.28 6.57L34.28 6.57Q33.82 6.39 33.38 6.58L33.38 6.58L33.38 6.58Q32.95 6.76 32.24 7.66L32.24 7.66L32.24 7.66Q32.30 6.82 31.77 6.46L31.77 6.46ZM36.51 6.39L35.16 7.22L35.25 7.33L35.25 7.33Q35.88 6.92 35.87 8.52L35.87 8.52L35.87 8.52Q35.80 11.43 35.89 11.88L35.89 11.88L35.89 11.88Q35.98 12.34 36.73 12.70L36.73 12.70L37.73 12.00L37.67 11.86L37.67 11.86Q37.12 12.18 37.00 11.16L37.00 11.16L37.00 11.16Q36.87 10.14 36.95 8.24L36.95 8.24L36.95 8.24Q38.26 6.81 39.22 7.10L39.22 7.10L39.22 7.10Q40.18 7.39 40.04 9.29L40.04 9.29L40.04 9.29Q40.00 11.34 40.05 11.83L40.05 11.83L40.05 11.83Q40.10 12.32 40.69 12.68L40.69 12.68L41.73 11.95L41.64 11.79L41.64 11.79Q41.17 12.04 41.10 11.10L41.10 11.10L41.10 11.10Q41.03 10.17 41.10 8.73L41.10 8.73L41.10 8.73Q41.15 7.85 40.88 7.26L40.88 7.26L40.88 7.26Q40.61 6.68 39.94 6.44L39.94 6.44L39.94 6.44Q39.26 6.20 38.45 6.55L38.45 6.55L38.45 6.55Q37.63 6.90 36.98 7.59L36.98 7.59L36.98 7.59Q37.04 6.75 36.51 6.39L36.51 6.39ZM46.35 3.71L45.34 4.35L45.42 4.54L45.42 4.54Q45.74 4.23 45.86 5.67L45.86 5.67L45.82 11.19L45.82 11.19Q45.83 12.36 46.39 12.71L46.39 12.71L47.24 12.01L47.24 12.01Q47.73 11.62 48.31 12.12L48.31 12.12L48.31 12.12Q48.88 12.63 49.43 12.73L49.43 12.73L50.39 11.76L50.25 11.61L50.25 11.61Q50.00 11.81 49.80 11.71L49.80 11.71L49.80 11.71Q49.61 11.62 49.20 11.25L49.20 11.25L49.20 11.25Q48.79 10.88 48.18 10.96L48.18 10.96L47.07 11.56L47.07 11.56Q46.96 11.14 46.97 10.73L46.97 10.73L46.96 5.20L46.96 5.20Q46.95 3.99 46.35 3.71L46.35 3.71ZM53.40 6.54L53.40 6.54L53.40 6.54Q52.38 6.56 51.53 7.23L51.53 7.23L51.53 7.23Q50.69 7.90 51.11 8.74L51.11 8.74L52.23 8.07L52.23 8.07Q52.01 6.90 53.43 7.03L53.43 7.03L53.43 7.03Q54.86 7.15 54.67 8.89L54.67 8.89L54.67 8.89Q53.57 8.39 52.69 8.61L52.69 8.61L52.69 8.61Q51.81 8.82 51.07 9.71L51.07 9.71L51.07 9.71Q50.48 10.58 50.70 11.18L50.70 11.18L50.70 11.18Q50.91 11.79 51.40 12.23L51.40 12.23L51.40 12.23Q51.88 12.67 52.48 12.71L52.48 12.71L52.48 12.71Q53.07 12.76 53.48 12.48L53.48 12.48L53.48 12.48Q53.89 12.20 54.69 11.49L54.69 11.49L54.69 11.49Q54.76 12.36 55.25 12.76L55.25 12.76L56.36 11.80L56.27 11.64L56.27 11.64Q55.71 12.10 55.64 10.58L55.64 10.58L55.65 8.14L55.65 8.14Q55.62 7.23 55.02 6.88L55.02 6.88L55.02 6.88Q54.41 6.53 53.40 6.54ZM54.37 9.84L54.37 9.84L54.65 9.47L54.65 11.08L54.65 11.08Q53.79 11.95 53.16 11.90L53.16 11.90L53.16 11.90Q52.54 11.85 52.12 11.48L52.12 11.48L52.12 11.48Q51.69 11.12 51.50 10.64L51.50 10.64L51.50 10.64Q51.31 10.17 51.58 9.71L51.58 9.71L51.58 9.71Q51.84 9.26 52.63 9.19L52.63 9.19L52.63 9.19Q53.42 9.11 54.37 9.84ZM57.78 3.49L56.83 4.20L56.83 4.20Q57.26 4.68 57.16 7.22L57.16 7.22L57.16 7.22Q57.05 9.76 57.10 10.65L57.10 10.65L57.10 10.65Q57.15 11.55 58.31 12.25L58.31 12.25L58.31 12.25Q59.47 12.96 60.34 12.54L60.34 12.54L60.34 12.54Q61.21 12.13 61.82 11.45L61.82 11.45L61.82 11.45Q62.43 10.77 62.60 9.68L62.60 9.68L62.60 9.68Q62.77 8.60 62.16 7.72L62.16 7.72L62.16 7.72Q61.56 6.84 60.62 6.66L60.62 6.66L60.62 6.66Q59.69 6.48 58.15 7.49L58.15 7.49L58.15 7.49Q58.30 4.43 58.11 3.98L58.11 3.98L58.11 3.98Q57.91 3.52 57.78 3.49L57.78 3.49ZM59.19 7.42L59.19 7.42L59.19 7.42Q59.95 7.31 60.65 7.86L60.65 7.86L60.65 7.86Q61.35 8.40 61.51 9.35L61.51 9.35L61.51 9.35Q61.67 10.29 61.37 11.10L61.37 11.10L61.37 11.10Q61.07 11.91 60.39 11.91L60.39 11.91L60.39 11.91Q59.71 11.91 59.29 11.72L59.29 11.72L59.29 11.72Q58.88 11.53 58.44 11.05L58.44 11.05L58.44 11.05Q58.01 10.56 58.17 8.14L58.17 8.14L58.17 8.14Q58.43 7.52 59.19 7.42ZM66.17 6.53L66.17 6.53L66.17 6.53Q65.51 6.63 65.06 6.92L65.06 6.92L65.06 6.92Q64.61 7.21 64.25 7.57L64.25 7.57L64.25 7.57Q63.89 7.94 63.79 8.43L63.79 8.43L63.79 8.43Q63.70 8.93 64.12 9.37L64.12 9.37L64.12 9.37Q64.55 9.80 65.60 10.02L65.60 10.02L65.60 10.02Q66.66 10.24 67.06 10.47L67.06 10.47L67.06 10.47Q67.46 10.70 67.55 11.11L67.55 11.11L67.55 11.11Q67.63 11.53 67.34 11.79L67.34 11.79L67.34 11.79Q67.04 12.05 66.26 11.93L66.26 11.93L66.26 11.93Q65.48 11.81 65.07 11.55L65.07 11.55L65.07 11.55Q64.67 11.29 64.31 10.89L64.31 10.89L64.31 10.89Q63.95 10.50 64.22 10.34L64.22 10.34L64.13 10.25L63.36 10.84L63.36 10.84Q63.24 11.20 63.63 11.70L63.63 11.70L63.63 11.70Q64.03 12.21 64.61 12.52L64.61 12.52L64.61 12.52Q65.19 12.82 65.91 12.80L65.91 12.80L65.91 12.80Q66.64 12.78 67.24 12.34L67.24 12.34L67.24 12.34Q67.84 11.90 68.14 11.35L68.14 11.35L68.14 11.35Q68.44 10.81 68.35 10.36L68.35 10.36L68.35 10.36Q68.26 9.91 67.84 9.56L67.84 9.56L67.84 9.56Q67.43 9.20 66.12 8.95L66.12 8.95L66.12 8.95Q64.82 8.70 64.76 8.09L64.76 8.09L64.76 8.09Q64.71 7.48 65.30 7.31L65.30 7.31L65.30 7.31Q65.90 7.14 66.61 7.45L66.61 7.45L66.61 7.45Q67.33 7.76 67.05 8.13L67.05 8.13L67.14 8.24L67.94 7.40L67.94 7.40Q67.84 6.93 67.34 6.68L67.34 6.68L67.34 6.68Q66.83 6.43 66.17 6.53Z"></path></g><defs data-v-fde0c5aa=""><linearGradient data-v-fde0c5aa="" gradientTransform="rotate(25)" id="cf5e0921-f705-44ed-a7a2-5591834a0127" x1="0%" y1="0%" x2="100%" y2="0%"><stop data-v-fde0c5aa="" offset="0%" stop-color="#4F7E48" stop-opacity="1"></stop><stop data-v-fde0c5aa="" offset="100%" stop-color="#CAE6A5" stop-opacity="1"></stop></linearGradient></defs><g data-v-fde0c5aa="" id="245aff20-0c97-4157-8431-e45f7a88461a" stroke="none" fill="url(#cf5e0921-f705-44ed-a7a2-5591834a0127)" transform="matrix(1.8212517000088306,0,0,1.8212517000088306,58.82382298411984,-14.407711376972784)"><path d="M12.1 63.191c-5.638-1.821 7.766-2.922 10.081-2.777 0 0 2.291.234 3.055.293s2.136.44.374 1.204-4.339 1.469-5.886 2.666c-3.748 2.902-8.126 3.438-10.386 3.465-1.895.022-3.216-.275-4.919.078-1.703.353-1.856-.012-3.266-.481 0 0 1.938 1.292 3.348 1.058 1.409-.237 1.409-.248 1.409-.248s-.176.481-1.115.774c-.94.295-1.911.484-3.162.671 0 0 2.633.187 5.041-.905.651-.295 4.288-.117 5.874-.059s2.878-.411 3.936-.705c1.058-.293 3.407-1.374 4.816-2.255 1.41-.881 3.113-1.621 5.228-2.268 2.115-.646 3.534-1.805 5.767-1.451 2.232.352 6.334 1.921 8.859 1.861 2.526-.058 4.758-.117 6.461.529s4.111 1.116 3.818 1.469c-.294.353-1.234.881-2.232 1.821-.999.939-2.819 1.586-4.464 1.82s-4.817.881-6.344 1.527c-1.526.646-4.252 2.414-6.285 3.348-4.924 2.261-6.275.146-8.331-.089 0 0 3.515 3.319 10.034.441 6.521-2.878 9.691-3.349 10.809-3.406 1.115-.06 2.114-.353 2.701-.882.336-.301-.094.333-.589.998-.374.503-.634 1.142-.785 1.293-.134.134-.613.437-1.128.894-.844.751-2.193 1.602-4.018 1.457 0 0 2.825.563 4.641-.765.785-.574 1.554-1.247 2.3-1.938.534-.494 1.241-.658 1.75-1.146.468-.446.738-1.219 1.183-1.616.782-.699 1.527-1.285 2.227-1.643 2.477-1.264 7.159-.848 11.277.764 1.352.529 6.295 3.835 9.114 5.362s3.631 3.803 4.935 4.699c1.879 1.292 3.876 1.351 4.698 2.466.822 1.117 2.398 5.388.343 7.503-2.056 2.114-5.814 3.817-6.813 4.757-.998.939-1.233 1.527-3.289 1.645s-3.876.822-2.819 1.469c1.057.646 9.584.311 11.464.252 1.879-.059 10.161.176 11.16.176.998 0 2.28.512 1.693-.545-.587-1.059-1.409-.822-1.763-3.643-.352-2.819.059-9.633-2.878-13.392-2.938-3.76-6.226-8.341-.705-7.519 1.209.18 2.035.746 3.605.84.71.042 2.32-.31 3.054-.294 2.879-.059 5.404-2.231 3.465-1.351-4.616 2.098-9.275.431-10.183-.628 0 0 1.701-2.494 1.255-3.66-.46-1.205-.998.411-.998.411s-1.314-.425-1.057-.177c.677.654 2.208 1.765-.21 2.415-1.635.44-4.407-.03-5.288 3.024-.336 1.162-3.065-1.169-5.414-1.756-2.35-.587-3.677-3.348-2.737-6.285.939-2.936 4.923-5.896 6.919-5.192 1.998.705 1.774 2.525 1.305 3.584-.471 1.057 2.007-2.181.234-3.501 0 0 1.175 0 1.997-.705s2.606-.834 2.489-1.656c0 0-1.968 1.203-3.73 1.408-3.506.41-3.555-1.286-6.644 1.028.407-1.818.32-3.491.103-4.945-.105-.695.024-1.398-.188-1.988-.166-.46-.526-.827-.747-1.214-1.153-2.031-2.977-3.005-4.698-2.401 0 0 4.302-.438 4.999 4.999.509 3.973-.867 5.459-2.08 7.213-.321.465-.872.896-1.34 1.453-.288.34-.411.904-.666 1.304-.288.451-.616.828-.773 1.38-.236.828-.271 1.785.058 2.917 0 0-2.289-2.496-5.344-3.112-3.054-.617-7.107-1.284-8.061-1.363-4.601-.383-8.849-2.995-8.996-6.548-.147-3.555 1.551-5.963 3.254-6.902 1.703-.94 2.938-1.321 3.289-1.38.354-.06-2.76-.206-4.934 1.556-2.173 1.762-2.526 4.224-2.555 4.987 0 0-1.226-3.827-3.837-5.176-3.075-1.587-5.063-1.367-5.708-1.016 0 0 7.354-1.257 8.764 8.2 0 0-.294.317-1.233.173-.783-.121-1.431.145.127.572 1.118.308 1.953.402 2.47 2.673 0 0-2.011-.218-3.773.193-2.758.644-14.567-.881-16.682-2.631-1.576-1.306-2.702-4.041-1.116-5.217 0 0-2.584-.129-.763 4.981 0 0-1.067.465-3.711-.123-2.643-.587-5.601 1.064-7.145 1.122-2.271.084-5.756.117-6.461-2.115-.705-2.231-1.527-4.522-3.876-5.462C3.442 50.93 0 51.443 0 51.443s7.048-.587 8.224 3.995c1.174 4.581 4.464 4.934 5.286 4.934s-3.644.498-3.554 1.968c.088 1.439 2.144.851 2.144.851z"></path></g><!----></svg>